<svg width="34" height="34" viewBox="0 0 34 34" fill="none" xmlns="http://www.w3.org/2000/svg">
<path d="M7.09131 5.71718H26.9292C28.0109 5.71718 29.0511 6.1206 29.8491 6.84315L30.0054 6.99159C30.8212 7.8074 31.2797 8.91404 31.2798 10.0678V23.641C31.2798 24.7948 30.8212 25.9013 30.0054 26.7172C29.1895 27.533 28.083 27.9916 26.9292 27.9916H7.09131C6.00969 27.9915 4.96938 27.5892 4.17139 26.8666L4.01514 26.7172C3.19945 25.9013 2.74072 24.7947 2.74072 23.641V10.0678C2.74078 8.98606 3.14402 7.94586 3.8667 7.14784L4.01514 6.99159C4.77993 6.2268 5.80034 5.77646 6.87549 5.72304L7.09131 5.71718ZM4.1333 23.641C4.1333 24.3275 4.37195 24.9896 4.80322 25.516L4.99951 25.7328C5.55425 26.2875 6.3068 26.5999 7.09131 26.6H26.9292C27.7138 26.6 28.4662 26.2876 29.021 25.7328C29.5758 25.178 29.8882 24.4256 29.8882 23.641V13.3744H4.1333V23.641ZM22.231 20.3353H25.3638C25.502 20.3354 25.6361 20.376 25.7495 20.4516L25.856 20.5385C25.9864 20.6689 26.059 20.8462 26.0591 21.0307C26.0591 21.2151 25.9862 21.3923 25.856 21.5228C25.7255 21.6533 25.5482 21.7268 25.3638 21.7269H22.231C22.0464 21.7269 21.8693 21.6534 21.7388 21.5228C21.6084 21.3923 21.5347 21.2151 21.5347 21.0307C21.5348 20.8924 21.5763 20.7583 21.6519 20.6449L21.7388 20.5385C21.8693 20.4081 22.0465 20.3354 22.231 20.3353ZM7.09131 7.10976C6.3068 7.10982 5.55425 7.42123 4.99951 7.97597C4.44478 8.5307 4.13336 9.28326 4.1333 10.0678V11.9818H29.8882V10.0678C29.8881 9.38132 29.6496 8.71913 29.2183 8.19276L29.021 7.97597C28.4662 7.42135 27.7137 7.10976 26.9292 7.10976H7.09131Z" fill="#4CAF4F" stroke="#4CAF4F" stroke-width="0.696069"/>
</svg>
