<svg width="35" height="34" viewBox="0 0 35 34" fill="none" xmlns="http://www.w3.org/2000/svg">
<g clip-path="url(#clip0_211_2332)">
<path d="M12.4106 6.38666C13.9499 6.38675 15.4542 6.8309 16.7446 7.66205L16.9995 7.83295C18.2606 8.71539 19.239 9.94154 19.8198 11.3622L19.9302 11.6494C20.4576 13.0956 20.556 14.6609 20.2173 16.1581L20.144 16.456C19.7206 18.0423 18.8194 19.4606 17.563 20.5175L17.1401 20.873L17.644 21.1005C19.7136 22.0371 21.4942 23.5112 22.8013 25.3691L22.8062 25.3759L22.812 25.3828C22.8881 25.4802 22.9484 25.5888 22.9917 25.704L23.0298 25.8222C23.0718 25.9817 23.0804 26.1483 23.0562 26.3115C23.038 26.4337 23.0014 26.5522 22.9478 26.663L22.8882 26.7714C22.8232 26.8768 22.7431 26.9718 22.6499 27.0527L22.5532 27.1288C22.4184 27.2238 22.2653 27.29 22.104 27.3242C21.983 27.3498 21.8585 27.3573 21.7358 27.3456L21.6138 27.3271C21.4519 27.2949 21.2977 27.2301 21.1616 27.1367H21.1626C21.0265 27.0433 20.91 26.9236 20.8218 26.7841L20.8179 26.7773L20.813 26.7704L20.6313 26.5204C19.7688 25.3673 18.6737 24.4082 17.4165 23.706L17.145 23.5595C15.6826 22.7995 14.0587 22.4024 12.4106 22.4023C10.8654 22.4023 9.3412 22.7519 7.95166 23.4218L7.67529 23.5595C6.3041 24.2722 5.11298 25.2851 4.18896 26.5204L4.00732 26.7704L4.00635 26.7714C3.92281 26.8913 3.81864 26.995 3.69873 27.0771L3.57373 27.1513C3.44415 27.2187 3.30392 27.2621 3.15967 27.2792L3.01416 27.288H3.01221C2.82458 27.2886 2.64033 27.2444 2.47412 27.1611L2.31494 27.0654L2.31299 27.0644L2.21826 26.9902C2.00678 26.8071 1.8642 26.5553 1.81592 26.2773C1.76767 25.9992 1.81718 25.7143 1.95459 25.4706L2.01904 25.3691C3.32611 23.5112 5.10676 22.0371 7.17627 21.1005L7.68018 20.873L7.25732 20.5175C6.07946 19.5266 5.21375 18.2186 4.76123 16.7519L4.67627 16.456C4.27938 14.9689 4.32045 13.4014 4.79053 11.9404L4.89014 11.6494C5.41752 10.2032 6.34981 8.94222 7.57275 8.01459L7.8208 7.83295C9.16603 6.89167 10.7688 6.38666 12.4106 6.38666ZM23.0464 6.39642H23.0483C24.5883 6.39202 26.0947 6.83272 27.3872 7.66205L27.6431 7.83392C28.9062 8.71497 29.8857 9.9409 30.4673 11.3622L30.5786 11.6494C31.1065 13.0962 31.2042 14.6625 30.8638 16.1601L30.7905 16.4579C30.365 18.0447 29.4604 19.4621 28.2007 20.5165L27.7759 20.872L28.2808 21.1005C30.2211 21.9786 31.9077 23.329 33.188 25.0253L33.438 25.3691L33.4399 25.371C33.5097 25.4686 33.5641 25.5761 33.6021 25.6894L33.6343 25.8036C33.6609 25.9205 33.6703 26.041 33.6616 26.1601L33.647 26.2783C33.6265 26.3963 33.5886 26.5107 33.5347 26.6171L33.4751 26.7206C33.4107 26.8215 33.3315 26.9118 33.2407 26.9892L33.146 27.0624L33.1421 27.0654C32.9388 27.2107 32.6947 27.2879 32.4448 27.287C32.2497 27.2857 32.0573 27.2384 31.8843 27.1484C31.7545 27.0808 31.6382 26.9907 31.5405 26.8828L31.4487 26.7685C30.4997 25.4224 29.2415 24.3234 27.7798 23.5644C26.4091 22.8526 24.897 22.459 23.356 22.4111L23.0474 22.4062L22.9263 22.4003C22.6874 22.3765 22.4606 22.2829 22.2749 22.1308L22.186 22.0497C21.9576 21.8213 21.8286 21.5114 21.8286 21.1884C21.8286 20.9056 21.9272 20.6328 22.105 20.416L22.186 20.3271C22.4145 20.0987 22.7244 19.9706 23.0474 19.9706C24.4319 19.9705 25.7632 19.4543 26.7847 18.5292L26.9849 18.3388C28.0289 17.2945 28.6157 15.878 28.6157 14.4013C28.6156 13.0169 28.1001 11.6854 27.1753 10.664L26.9849 10.4638C26.0057 9.48469 24.6992 8.90798 23.3228 8.83978L23.0474 8.83295C22.6657 8.83225 22.2854 8.87153 21.9126 8.95013L21.5415 9.04193L21.4204 9.0722C21.3019 9.09505 21.1805 9.09975 21.0601 9.08685C20.9394 9.07393 20.8216 9.04359 20.7104 8.99603L20.6021 8.9433C20.4959 8.88485 20.399 8.81121 20.3149 8.72455L20.2358 8.63373C20.1604 8.53869 20.0992 8.43283 20.0552 8.32025L20.0171 8.20599C19.9842 8.08923 19.9693 7.96842 19.9722 7.8476L19.981 7.72748C19.9957 7.60718 20.0284 7.49009 20.0776 7.37982L20.1323 7.2724C20.1924 7.16719 20.267 7.07091 20.355 6.98822L20.4478 6.9101C20.5438 6.83632 20.6502 6.77755 20.7632 6.73529L20.8784 6.69818L20.8843 6.6972C21.4994 6.52208 22.1334 6.42258 22.772 6.40131L23.0464 6.39642ZM13.4966 8.94037C12.4839 8.73894 11.4365 8.82299 10.4712 9.18158L10.2788 9.25677C9.32501 9.6519 8.50134 10.3042 7.89795 11.1386L7.77979 11.3076C7.16797 12.2232 6.84137 13.3001 6.84131 14.4013C6.84131 15.7859 7.35678 17.1181 8.28174 18.1396L8.47217 18.3388C9.51647 19.3831 10.9338 19.9706 12.4106 19.9706C13.443 19.9706 14.4538 19.6835 15.3306 19.1435L15.5034 19.0322C16.3619 18.4585 17.0431 17.6578 17.4722 16.7216L17.5552 16.5322C17.9501 15.5784 18.071 14.535 17.9077 13.5185L17.8716 13.3154C17.6701 12.3026 17.1916 11.3669 16.4907 10.6122L16.3481 10.4638C15.618 9.73366 14.6997 9.22246 13.6978 8.98431L13.4966 8.94037Z" fill="#4CAF4F" stroke="#4CAF4F" stroke-width="0.696069"/>
</g>
<defs>
<clipPath id="clip0_211_2332">
<rect width="33.4113" height="33.4113" fill="white" transform="translate(0.924805 0.306213)"/>
</clipPath>
</defs>
</svg>
