<svg width="34" height="35" viewBox="0 0 34 35" fill="none" xmlns="http://www.w3.org/2000/svg">
<rect x="0.142578" y="0.919373" width="33.4113" height="33.4113" rx="5.56856" fill="#E8F5E9"/>
<g clip-path="url(#clip0_211_2511)">
<path fill-rule="evenodd" clip-rule="evenodd" d="M7.34937 1.05469C11.1936 1.05469 14.3101 4.17109 14.3101 8.01538V1.05469H21.2708C25.115 1.05469 28.2315 4.17109 28.2315 8.01538C28.2315 11.8596 25.115 14.9761 21.2708 14.9761C25.115 14.9761 28.2315 18.0925 28.2315 21.9368C28.2315 23.8456 27.4631 25.575 26.2188 26.8325L26.1927 26.8587L26.1696 26.8817C24.9118 28.1278 23.1812 28.8975 21.2708 28.8975C19.3733 28.8975 17.6532 28.1383 16.3976 26.9071C16.3813 26.891 16.365 26.8749 16.3488 26.8587C16.3335 26.8435 16.3184 26.8282 16.3033 26.8128C15.0704 25.557 14.3101 23.8356 14.3101 21.9368C14.3101 25.781 11.1936 28.8975 7.34937 28.8975C3.50508 28.8975 0.388672 25.781 0.388672 21.9368V14.9761H7.34937C3.50508 14.9761 0.388672 11.8596 0.388672 8.01538C0.388672 4.17109 3.50508 1.05469 7.34937 1.05469ZM12.9179 8.01538C12.9179 11.0908 10.4248 13.5839 7.34937 13.5839V2.44683C10.4248 2.44683 12.9179 4.93995 12.9179 8.01538ZM26.8393 21.9368C26.8393 18.8613 24.3462 16.3682 21.2708 16.3682C18.1953 16.3682 15.7022 18.8613 15.7022 21.9368H26.8393ZM1.78081 16.3682V21.9368C1.78081 25.0122 4.27394 27.5053 7.34937 27.5053C10.4248 27.5053 12.9179 25.0122 12.9179 21.9368V16.3682H1.78081ZM15.7022 13.5839V2.44683H21.2708C24.3462 2.44683 26.8393 4.93995 26.8393 8.01538C26.8393 11.0908 24.3462 13.5839 21.2708 13.5839H15.7022Z" fill="#5417D7"/>
</g>
<defs>
<clipPath id="clip0_211_2511">
<rect width="27.8428" height="27.8428" fill="white" transform="translate(0.388672 1.05469)"/>
</clipPath>
</defs>
</svg>
