<svg width="23" height="23" viewBox="0 0 23 23" fill="none" xmlns="http://www.w3.org/2000/svg">
<path opacity="0.1" fill-rule="evenodd" clip-rule="evenodd" d="M0.262695 11.7743C0.262695 5.62346 5.24895 0.637207 11.3998 0.637207C17.5507 0.637207 22.5369 5.62346 22.5369 11.7743C22.5369 17.9252 17.5507 22.9114 11.3998 22.9114C5.24895 22.9114 0.262695 17.9252 0.262695 11.7743Z" fill="white"/>
<path fill-rule="evenodd" clip-rule="evenodd" d="M17.34 11.766C17.34 12.1677 17.2991 12.5689 17.2188 12.9599C17.1405 13.3416 17.0245 13.7164 16.8725 14.0746C16.724 14.4266 16.5398 14.7657 16.3246 15.082C16.1126 15.3962 15.8684 15.6911 15.6001 15.9598C15.3312 16.2274 15.0354 16.471 14.7213 16.6839C14.4039 16.8976 14.0643 17.0815 13.7122 17.2307C13.3534 17.3819 12.9778 17.4977 12.5964 17.5759C12.2049 17.6565 11.8023 17.6976 11.4 17.6976C10.9974 17.6976 10.5948 17.6565 10.2038 17.5759C9.82186 17.4977 9.44625 17.3819 9.08775 17.2307C8.73565 17.0815 8.3957 16.8976 8.0784 16.6839C7.76428 16.471 7.46844 16.2274 7.20015 15.9598C6.93157 15.6911 6.68734 15.3962 6.47503 15.082C6.26098 14.7657 6.0765 14.4265 5.92743 14.0746C5.77543 13.7164 5.65913 13.3416 5.58053 12.9599C5.50107 12.5689 5.46045 12.1677 5.46045 11.766C5.46045 11.364 5.50104 10.962 5.58055 10.5719C5.65916 10.1901 5.77545 9.8148 5.92745 9.45712C6.07652 9.10494 6.261 8.76551 6.47506 8.44922C6.68737 8.1347 6.9316 7.84042 7.20017 7.57136C7.46846 7.30373 7.7643 7.06076 8.07842 6.84817C8.39572 6.63355 8.73567 6.44966 9.08777 6.3002C9.44627 6.14869 9.82186 6.03257 10.2039 5.95496C10.5948 5.87503 10.9974 5.83447 11.4 5.83447C11.8023 5.83447 12.2049 5.87503 12.5964 5.95496C12.9778 6.03259 13.3534 6.14872 13.7122 6.3002C14.0643 6.44963 14.404 6.63355 14.7213 6.84817C15.0354 7.06076 15.3313 7.30373 15.6001 7.57136C15.8684 7.84042 16.1126 8.1347 16.3246 8.44922C16.5398 8.76551 16.724 9.10497 16.8725 9.45712C17.0245 9.8148 17.1405 10.1901 17.2188 10.5719C17.2991 10.962 17.34 11.364 17.34 11.766ZM9.23564 7.18442C7.82108 7.85144 6.76532 9.15301 6.43612 10.7216C6.56985 10.7228 8.68369 10.7494 11.1192 10.1033C10.2412 8.54565 9.30323 7.27451 9.23564 7.18442ZM11.5394 10.8833C8.92761 11.6641 6.42133 11.6079 6.33143 11.6044C6.32996 11.6589 6.32736 11.7116 6.32736 11.766C6.32736 13.0673 6.81898 14.2536 7.62704 15.1506C7.6253 15.148 9.01347 12.6888 11.7509 11.8048C11.817 11.7828 11.8843 11.7631 11.951 11.744C11.8237 11.4561 11.6848 11.1677 11.5394 10.8833ZM14.75 7.96439C13.8569 7.17804 12.6843 6.70105 11.4 6.70105C10.9878 6.70105 10.5878 6.75087 10.2047 6.84297C10.2807 6.94493 11.2335 8.20711 12.101 9.79771C14.015 9.08119 14.7375 7.98291 14.75 7.96439ZM12.2968 12.5833C12.2855 12.5871 12.2742 12.5903 12.2632 12.5944C9.27024 13.6362 8.29286 15.7359 8.28229 15.7588C9.14345 16.4275 10.2236 16.831 11.4 16.831C12.1025 16.831 12.7716 16.6882 13.3804 16.4296C13.3053 15.987 13.0106 14.4358 12.2968 12.5833ZM14.2346 15.9668C15.3735 15.1993 16.1825 13.9805 16.4081 12.5688C16.3037 12.5352 14.8845 12.0866 13.2472 12.3487C13.9126 14.1746 14.1829 15.6615 14.2346 15.9668ZM12.4914 10.5525C12.6092 10.794 12.7232 11.0399 12.8284 11.287C12.8659 11.3756 12.9024 11.4625 12.9381 11.5494C14.6807 11.3304 16.3974 11.6988 16.4708 11.7139C16.4592 10.5131 16.0291 9.41105 15.3173 8.54828C15.3078 8.56186 14.4942 9.73572 12.4914 10.5525Z" fill="white"/>
</svg>
