<svg width="12" height="13" viewBox="0 0 12 13" fill="none" xmlns="http://www.w3.org/2000/svg">
<path fill-rule="evenodd" clip-rule="evenodd" d="M11.4607 0.766934C11.6025 0.908743 11.6505 1.11925 11.5843 1.30854L7.92989 11.7496C7.85918 11.9516 7.6723 12.09 7.45843 12.0987C7.24456 12.1075 7.04703 11.9848 6.96009 11.7891L4.95343 7.27416L0.438447 5.2675C0.242844 5.18057 0.120129 4.98304 0.128855 4.76916C0.13758 4.55529 0.275978 4.36841 0.478013 4.2977L10.9191 0.643337C11.1083 0.577086 11.3189 0.625125 11.4607 0.766934ZM5.97162 6.99427L7.37941 10.1618L9.84304 3.12285L5.97162 6.99427ZM9.10475 2.38455L2.0658 4.84819L5.23332 6.25598L9.10475 2.38455Z" fill="white"/>
</svg>
