<svg width="134" height="22" viewBox="0 0 134 22" fill="none" xmlns="http://www.w3.org/2000/svg">
<path d="M17.0185 12.0322L12.3793 19.9777L7.74004 12.0322H17.0185ZM18.2614 11.322H6.49219L12.3793 21.3831L18.2614 11.322Z" fill="white"/>
<path d="M25.0844 2.14975L29.7236 10.0953H20.4451L25.0844 2.14975ZM25.0844 0.729492L19.1973 10.7905H30.9715L25.0844 0.729492Z" fill="white"/>
<path d="M0.851562 0.729492L5.78769 9.62848L11.1817 0.952948L0.851562 0.729492Z" fill="#4CAF4F"/>
<path d="M12.3791 1.50903L17.5568 10.3584H7.19141L12.3791 1.50903Z" fill="#4CAF4F"/>
<path d="M18.8902 12.2904L24.0728 21.3831H13.4609L18.7291 12.2904H18.8902Z" fill="#4CAF4F"/>
<path d="M20.0122 11.7391L25.0842 20.6927L30.2266 11.7391H20.0122Z" fill="#4CAF4F"/>
<path d="M52.5137 2.16577V19.69H49.3135L41.6894 8.66036H41.561V19.69H37.856V2.16577H41.1075L48.6717 13.1869H48.8257V2.16577H52.5137Z" fill="white"/>
<path d="M61.4962 19.9467C60.1442 19.9467 58.9805 19.6729 58.005 19.1253C57.0352 18.5719 56.288 17.7904 55.7631 16.7807C55.2383 15.7653 54.9759 14.5645 54.9759 13.1783C54.9759 11.8264 55.2383 10.6398 55.7631 9.61872C56.288 8.59761 57.0267 7.80183 57.9793 7.23138C58.9377 6.66093 60.0615 6.3757 61.3507 6.3757C62.2178 6.3757 63.025 6.51546 63.7723 6.79498C64.5253 7.0688 65.1813 7.48238 65.7403 8.03572C66.3051 8.58905 66.7443 9.285 67.0581 10.1236C67.3718 10.9564 67.5287 11.9319 67.5287 13.05V14.0511H56.4306V11.7921H64.0974C64.0974 11.2673 63.9833 10.8024 63.7552 10.3974C63.527 9.99236 63.2104 9.67576 62.8054 9.44758C62.406 9.2137 61.9411 9.09676 61.4106 9.09676C60.8573 9.09676 60.3667 9.22511 59.9388 9.48181C59.5167 9.73281 59.1858 10.0722 58.9463 10.5001C58.7067 10.9222 58.584 11.3928 58.5783 11.9119V14.0597C58.5783 14.71 58.6981 15.2719 58.9377 15.7454C59.183 16.2188 59.5281 16.5839 59.9731 16.8406C60.418 17.0973 60.9457 17.2257 61.5561 17.2257C61.9611 17.2257 62.3319 17.1686 62.6684 17.0545C63.005 16.9405 63.2931 16.7693 63.5327 16.5411C63.7723 16.313 63.9548 16.0334 64.0803 15.7026L67.4517 15.9251C67.2805 16.7351 66.9297 17.4425 66.3992 18.0471C65.8744 18.6461 65.1955 19.1139 64.3627 19.4504C63.5355 19.7813 62.58 19.9467 61.4962 19.9467Z" fill="white"/>
<path d="M72.7184 6.54684L75.1314 11.1418L77.6043 6.54684H81.3436L77.5358 13.1184L81.4463 19.69H77.7241L75.1314 15.1464L72.5815 19.69H68.8165L72.7184 13.1184L68.9534 6.54684H72.7184Z" fill="white"/>
<path d="M88.9762 19.9467C87.63 19.9467 86.472 19.6615 85.5022 19.0911C84.5381 18.5149 83.7965 17.7163 83.2774 16.6952C82.764 15.6741 82.5073 14.4989 82.5073 13.1698C82.5073 11.8235 82.7669 10.6427 83.286 9.62727C83.8108 8.60617 84.5552 7.81039 85.5193 7.23993C86.4834 6.66378 87.63 6.3757 88.9591 6.3757C90.1057 6.3757 91.1097 6.58392 91.9711 7.00035C92.8325 7.41678 93.5142 8.00149 94.0162 8.75448C94.5182 9.50748 94.7948 10.3917 94.8462 11.4071H91.4064C91.3094 10.7511 91.0527 10.2234 90.6362 9.82408C90.2255 9.41906 89.6864 9.21655 89.019 9.21655C88.4543 9.21655 87.9608 9.37057 87.5387 9.67861C87.1223 9.98095 86.7971 10.4231 86.5632 11.0049C86.3293 11.5868 86.2124 12.2913 86.2124 13.1184C86.2124 13.957 86.3265 14.6701 86.5547 15.2576C86.7886 15.8452 87.1166 16.293 87.5387 16.601C87.9608 16.9091 88.4543 17.0631 89.019 17.0631C89.4354 17.0631 89.8091 16.9775 90.14 16.8064C90.4765 16.6353 90.7532 16.3871 90.97 16.062C91.1924 15.7311 91.3379 15.3346 91.4064 14.8726H94.8462C94.7891 15.8766 94.5153 16.7608 94.0247 17.5252C93.5398 18.2839 92.8696 18.8771 92.0139 19.305C91.1582 19.7328 90.1457 19.9467 88.9762 19.9467Z" fill="white"/>
<path d="M103.17 19.9467C101.818 19.9467 100.654 19.6729 99.6786 19.1253C98.7088 18.5719 97.9616 17.7904 97.4367 16.7807C96.9119 15.7653 96.6495 14.5645 96.6495 13.1783C96.6495 11.8264 96.9119 10.6398 97.4367 9.61872C97.9616 8.59761 98.7003 7.80183 99.6529 7.23138C100.611 6.66093 101.735 6.3757 103.024 6.3757C103.891 6.3757 104.699 6.51546 105.446 6.79498C106.199 7.0688 106.855 7.48238 107.414 8.03572C107.979 8.58905 108.418 9.285 108.732 10.1236C109.045 10.9564 109.202 11.9319 109.202 13.05V14.0511H98.1042V11.7921H105.771C105.771 11.2673 105.657 10.8024 105.429 10.3974C105.201 9.99236 104.884 9.67576 104.479 9.44758C104.08 9.2137 103.615 9.09676 103.084 9.09676C102.531 9.09676 102.04 9.22511 101.612 9.48181C101.19 9.73281 100.859 10.0722 100.62 10.5001C100.38 10.9222 100.258 11.3928 100.252 11.9119V14.0597C100.252 14.71 100.372 15.2719 100.611 15.7454C100.857 16.2188 101.202 16.5839 101.647 16.8406C102.092 17.0973 102.619 17.2257 103.23 17.2257C103.635 17.2257 104.005 17.1686 104.342 17.0545C104.679 16.9405 104.967 16.7693 105.206 16.5411C105.446 16.313 105.628 16.0334 105.754 15.7026L109.125 15.9251C108.954 16.7351 108.603 17.4425 108.073 18.0471C107.548 18.6461 106.869 19.1139 106.036 19.4504C105.209 19.7813 104.254 19.9467 103.17 19.9467Z" fill="white"/>
<path d="M115.226 12.0916V19.69H111.581V6.54684H115.055V8.86572H115.209C115.5 8.10132 115.988 7.49664 116.672 7.05169C117.357 6.60103 118.187 6.3757 119.162 6.3757C120.075 6.3757 120.871 6.57536 121.55 6.97468C122.229 7.37399 122.756 7.94444 123.133 8.68603C123.509 9.42191 123.697 10.3004 123.697 11.3215V19.69H120.052V11.9718C120.058 11.1675 119.853 10.54 119.436 10.0893C119.02 9.63298 118.446 9.4048 117.716 9.4048C117.226 9.4048 116.792 9.51033 116.416 9.7214C116.045 9.93247 115.754 10.2405 115.543 10.6455C115.338 11.0448 115.232 11.5269 115.226 12.0916Z" fill="white"/>
<path d="M133.561 6.54684V9.285H125.646V6.54684H133.561ZM127.443 3.39795H131.088V15.6512C131.088 15.9878 131.14 16.2502 131.242 16.4385C131.345 16.621 131.488 16.7494 131.67 16.8235C131.858 16.8977 132.075 16.9348 132.321 16.9348C132.492 16.9348 132.663 16.9205 132.834 16.892C133.005 16.8577 133.136 16.8321 133.228 16.815L133.801 19.5275C133.618 19.5845 133.362 19.6501 133.031 19.7243C132.7 19.8041 132.298 19.8526 131.824 19.8697C130.946 19.904 130.176 19.787 129.514 19.5189C128.858 19.2508 128.347 18.8344 127.982 18.2696C127.617 17.7049 127.437 16.9918 127.443 16.1304V3.39795Z" fill="white"/>
</svg>
