<svg width="309" height="302" viewBox="0 0 309 302" fill="none" xmlns="http://www.w3.org/2000/svg">
<path d="M154.599 265.353C220.42 265.353 273.778 262.238 273.778 258.395C273.778 254.552 220.42 251.437 154.599 251.437C88.7778 251.437 35.4194 254.552 35.4194 258.395C35.4194 262.238 88.7778 265.353 154.599 265.353Z" fill="#F5F5F5"/>
<path d="M215.605 102.999L209.508 100.54C209.508 100.54 201.462 115.212 199.157 115.956C196.022 116.964 189.531 119.767 185.683 120.259C185.161 120.874 184.306 122.785 184.386 123.48C189.556 125.207 200.915 122.914 203.349 121.107C208.887 117.007 215.605 102.999 215.605 102.999Z" fill="#E58A7B"/>
<path d="M217.48 99.6612C218.617 103.859 212.458 112.305 212.458 112.305L204.388 107.781C204.388 107.781 205.9 104.308 207.744 100.774C210.7 95.0634 216.183 94.8728 217.48 99.6612Z" fill="#4CAF4F"/>
<path opacity="0.2" d="M217.48 99.6612C218.617 103.859 212.458 112.305 212.458 112.305L204.388 107.781C204.388 107.781 205.9 104.308 207.744 100.774C210.7 95.0634 216.183 94.8728 217.48 99.6612Z" fill="black"/>
<path opacity="0.2" d="M207.59 109.588L210.768 111.371L211.327 101.616C209.477 103.036 208.174 107.314 207.59 109.588Z" fill="black"/>
<path d="M212.169 96.5018C212.169 96.5018 205.887 110.479 209.551 136.505H234.304C234.697 132.706 233.394 114.168 238.108 96.2682C235.393 95.7375 232.646 95.3864 229.884 95.2171C226.381 95.0141 222.87 95.0141 219.367 95.2171C216.939 95.4636 214.533 95.8931 212.169 96.5018Z" fill="#4CAF4F"/>
<path opacity="0.2" d="M212.169 96.5018C212.169 96.5018 205.887 110.479 209.551 136.505H234.304C234.697 132.706 233.394 114.168 238.108 96.2682C235.393 95.7375 232.646 95.3864 229.884 95.2171C226.381 95.0141 222.87 95.0141 219.367 95.2171C216.939 95.4636 214.533 95.8931 212.169 96.5018Z" fill="black"/>
<g style="mix-blend-mode:multiply">
<path d="M206.428 258.948C206.391 259.612 215.778 260.147 227.389 260.147C239 260.147 248.454 259.612 248.491 258.948C248.527 258.284 239.147 257.756 227.53 257.756C215.913 257.756 206.471 258.29 206.428 258.948Z" fill="#E8ECF1"/>
</g>
<path d="M222.951 241.505L218.561 243.205L222.342 252.974L226.733 251.275L222.951 241.505Z" fill="#E58A7B"/>
<path d="M242.528 254.221H237.9L236.203 243.507H240.832L242.528 254.221Z" fill="#E58A7B"/>
<path d="M237.58 253.686H242.78C242.87 253.687 242.957 253.719 243.026 253.778C243.095 253.836 243.14 253.917 243.155 254.006L243.825 258.118C243.839 258.221 243.831 258.326 243.801 258.426C243.771 258.526 243.719 258.618 243.651 258.696C243.582 258.774 243.497 258.837 243.402 258.879C243.307 258.921 243.204 258.943 243.1 258.942C241.286 258.911 240.413 258.801 238.127 258.801C236.719 258.801 233.824 258.948 231.869 258.948C229.915 258.948 229.786 257.03 230.591 256.852C234.205 256.071 235.607 255.008 236.811 253.975C237.024 253.789 237.297 253.686 237.58 253.686Z" fill="#263238"/>
<path d="M222.213 252.101L227.13 250.662C227.218 250.638 227.312 250.644 227.395 250.679C227.479 250.715 227.548 250.778 227.591 250.859L229.435 254.547C229.478 254.641 229.5 254.742 229.499 254.845C229.499 254.948 229.476 255.05 229.432 255.143C229.388 255.236 229.324 255.318 229.245 255.384C229.166 255.45 229.074 255.498 228.974 255.524C227.186 256.016 225.987 256.317 223.75 256.969C222.207 257.418 220.633 258.149 219.109 258.635C218.051 258.973 215.568 258.985 214.284 258.985C212.384 258.985 211.96 256.981 212.778 256.889C214.837 256.661 215.113 256.766 216.25 256.194C218.111 255.381 219.797 254.216 221.217 252.764C221.485 252.459 221.828 252.23 222.213 252.101Z" fill="#263238"/>
<path d="M186.458 120.234L181.368 118.101L179.272 123.744C181.358 124.062 183.48 124.062 185.566 123.744L186.458 120.234Z" fill="#E58A7B"/>
<path d="M177.582 117.954L177.446 121.703L179.272 123.732L181.368 118.089L177.582 117.954Z" fill="#E58A7B"/>
<path d="M223.553 242.335L219.149 244.035L221.1 249.087L225.504 247.387L223.553 242.335Z" fill="#CF6F64"/>
<path d="M240.832 243.507H236.203L237.082 249.033H241.711L240.832 243.507Z" fill="#CF6F64"/>
<path opacity="0.2" d="M208.764 129.467C208.856 130.579 208.961 131.716 209.096 132.884L227.499 126.91C230.373 126.058 232.871 124.252 234.581 121.789C234.654 120.148 234.746 118.421 234.888 116.62C234.949 115.747 235.023 114.85 235.103 113.94C235.183 113.03 235.294 112.022 235.41 111.051L208.764 129.467Z" fill="black"/>
<path d="M214.775 109.305L214.161 109.232C214.523 106.158 216.816 103.736 219.232 103.798V104.413C217.117 104.37 215.101 106.552 214.775 109.305Z" fill="white"/>
<path d="M218.052 114.979H217.947V114.364C220.062 114.444 222.047 112.237 222.373 109.49L222.988 109.564C222.662 112.569 220.443 114.979 218.052 114.979Z" fill="white"/>
<path d="M229.54 83.3723C228.673 86.7591 227.653 92.9612 229.884 95.2171C229.884 95.2171 228.323 98.6531 222.035 98.6531C216.288 98.6531 219.367 95.2171 219.367 95.2171C223.19 94.3196 223.258 91.529 222.754 88.8859L229.54 83.3723Z" fill="#E58A7B"/>
<path d="M226.774 85.622L222.76 88.8859C222.885 89.4933 222.957 90.1102 222.975 90.7299C224.149 91.8978 226.504 88.9412 226.743 87.4291C226.865 86.8338 226.876 86.2211 226.774 85.622Z" fill="#CF6F64"/>
<path d="M215.857 83.3292C216.136 83.8133 216.513 84.2346 216.962 84.5667C217.412 84.8988 217.925 85.1346 218.469 85.2593C219.945 85.5851 220.682 84.2267 220.277 82.8621C219.914 81.6327 218.703 79.9793 217.203 80.262C216.882 80.3282 216.581 80.4704 216.326 80.6767C216.071 80.883 215.869 81.1474 215.738 81.4478C215.606 81.7481 215.548 82.0757 215.569 82.403C215.589 82.7304 215.688 83.048 215.857 83.3292Z" fill="#CF6F64"/>
<path d="M218.298 72.4925C215.999 73.5436 215.187 82.6777 218.076 84.03C220.965 85.3823 222.65 70.4948 218.298 72.4925Z" fill="#263238"/>
<path d="M230.241 78.2766C229.688 82.8621 229.626 85.5605 227.168 87.9086C226.406 88.6878 225.443 89.2413 224.387 89.5079C223.33 89.7746 222.22 89.7441 221.18 89.4198C220.139 89.0954 219.209 88.4899 218.491 87.67C217.773 86.8502 217.296 85.8478 217.111 84.7737C216.368 80.6554 217.394 73.8509 221.992 72.0254C222.958 71.5993 224.02 71.4393 225.069 71.5621C226.118 71.6848 227.115 72.0858 227.956 72.7236C228.798 73.3613 229.453 74.2124 229.855 75.1888C230.257 76.1652 230.39 77.2313 230.241 78.2766Z" fill="#E58A7B"/>
<path d="M222.686 74.8652C226.092 73.9985 228.593 73.4084 227.696 76.242C226.51 80.0284 225.083 83.6919 226.995 83.8579C228.163 83.9624 233.326 81.7741 232.669 79.5551C232.097 77.6251 234.513 77.0964 234.943 76.1191C236.535 72.5786 231.98 73.0457 232.791 70.8944C233.603 68.743 229.103 65.2762 226.645 67.0035C222.643 69.7941 215.777 69.7511 219.385 65.1594C221.973 61.8832 217.357 62.5532 217.357 62.5532C217.357 62.5532 220.148 64.2067 215.452 66.7637C210.485 69.4929 215.04 76.826 222.686 74.8652Z" fill="#263238"/>
<path d="M232.048 83.3292C231.376 84.302 230.366 84.99 229.214 85.2593C227.696 85.5851 227.112 84.2267 227.684 82.8621C228.194 81.6327 229.595 79.9793 231.046 80.262C232.497 80.5448 232.829 82.1245 232.048 83.3292Z" fill="#E58A7B"/>
<path d="M209.551 136.505C209.551 136.505 205.395 173.693 205.07 187.806C204.738 202.484 219.152 248.283 219.152 248.283L226.528 245.21C226.528 245.21 217.922 203.363 219.152 188.949C220.455 173.232 225.839 136.529 225.839 136.529L209.551 136.505Z" fill="#4CAF4F"/>
<path opacity="0.2" d="M219.877 146.715C216.564 153.587 218.796 167.177 220.59 175.229C221.273 169.544 222.084 163.372 222.852 157.662C222.779 148.884 222.096 142.104 219.877 146.715Z" fill="black"/>
<path d="M226.202 242.776C226.239 242.776 227.075 245.124 227.075 245.124L218.568 248.701L217.228 246.206L226.202 242.776Z" fill="#4CAF4F"/>
<path d="M218.334 136.505C218.334 136.505 221.512 171.873 223.615 185.119C225.926 199.632 234.986 247.964 234.986 247.964H243.462C243.462 247.964 238.385 200.806 237.426 186.435C236.381 170.847 234.304 136.505 234.304 136.505H218.334Z" fill="#4CAF4F"/>
<path d="M243.592 245.757C243.629 245.757 243.874 248.124 243.874 248.124H234.556L233.892 245.407L243.592 245.757Z" fill="#4CAF4F"/>
<path opacity="0.2" d="M240.346 242.954C240.327 242.954 240.308 242.948 240.293 242.935C240.279 242.923 240.269 242.906 240.266 242.887C240.217 242.456 235.637 199.859 234.777 186.951C233.842 172.949 231.962 141.889 231.943 141.576C231.942 141.566 231.944 141.555 231.947 141.546C231.95 141.536 231.956 141.527 231.962 141.52C231.969 141.512 231.978 141.506 231.987 141.502C231.997 141.498 232.007 141.496 232.017 141.496C232.037 141.496 232.057 141.503 232.071 141.517C232.086 141.531 232.095 141.55 232.097 141.57C232.097 141.883 233.996 172.918 234.93 186.945C235.791 199.853 240.37 242.419 240.413 242.88C240.415 242.891 240.415 242.901 240.412 242.911C240.41 242.921 240.405 242.93 240.399 242.939C240.392 242.947 240.384 242.953 240.375 242.958C240.366 242.963 240.356 242.966 240.346 242.967V242.954Z" fill="black"/>
<path d="M223.209 79.5551C223.209 79.9301 222.975 80.2313 222.729 80.2313C222.484 80.2313 222.305 79.9301 222.33 79.5551C222.354 79.1802 222.563 78.879 222.809 78.879C223.055 78.879 223.233 79.1863 223.209 79.5551Z" fill="#263238"/>
<path d="M218.992 79.5551C218.992 79.9301 218.753 80.2313 218.513 80.2313C218.273 80.2313 218.089 79.9301 218.107 79.5551C218.126 79.1802 218.347 78.879 218.593 78.879C218.839 78.879 219.017 79.1863 218.992 79.5551Z" fill="#263238"/>
<path d="M220.32 79.7457C219.807 80.8907 219.146 81.9632 218.353 82.9359C218.968 83.5505 220.117 83.2678 220.117 83.2678L220.32 79.7457Z" fill="#DF5753"/>
<path d="M220.43 84.8352C220.416 84.8352 220.402 84.8323 220.389 84.8267C220.376 84.8211 220.364 84.8128 220.354 84.8025C220.344 84.7921 220.337 84.7798 220.332 84.7664C220.327 84.753 220.325 84.7388 220.326 84.7246C220.327 84.6947 220.34 84.6665 220.362 84.6459C220.384 84.6253 220.413 84.6139 220.443 84.6139C220.913 84.6172 221.378 84.5151 221.803 84.3151C222.229 84.1151 222.604 83.8224 222.901 83.4583C222.923 83.4397 222.95 83.4295 222.978 83.4295C223.006 83.4295 223.034 83.4397 223.055 83.4583C223.075 83.479 223.086 83.5065 223.086 83.5352C223.086 83.5638 223.075 83.5914 223.055 83.612C222.737 83.9989 222.336 84.3096 221.881 84.5212C221.427 84.7329 220.931 84.8402 220.43 84.8352Z" fill="#263238"/>
<path d="M223.959 78.4241C223.929 78.4392 223.896 78.4471 223.863 78.4471C223.83 78.4471 223.798 78.4392 223.768 78.4241C223.538 78.2755 223.276 78.183 223.004 78.1542C222.732 78.1254 222.457 78.161 222.201 78.2582C222.176 78.2707 222.149 78.278 222.121 78.2798C222.093 78.2816 222.065 78.2778 222.039 78.2686C222.012 78.2595 221.988 78.2451 221.967 78.2264C221.947 78.2077 221.93 78.1851 221.918 78.1598C221.895 78.1051 221.895 78.0437 221.916 77.9886C221.938 77.9335 221.981 77.889 222.035 77.8648C222.356 77.7335 222.704 77.6818 223.05 77.7139C223.396 77.746 223.728 77.861 224.02 78.0492C224.044 78.0652 224.064 78.0857 224.079 78.1096C224.095 78.1335 224.106 78.1602 224.111 78.1882C224.116 78.2162 224.115 78.245 224.109 78.2728C224.103 78.3007 224.092 78.327 224.075 78.3504C224.044 78.3856 224.004 78.4112 223.959 78.4241Z" fill="#263238"/>
<path d="M217.363 77.1948C217.33 77.1869 217.3 77.1698 217.277 77.1456C217.257 77.1256 217.24 77.1017 217.229 77.0753C217.218 77.0489 217.212 77.0206 217.212 76.992C217.212 76.9633 217.218 76.935 217.229 76.9086C217.24 76.8822 217.257 76.8583 217.277 76.8383C217.513 76.5741 217.806 76.3678 218.134 76.2356C218.463 76.1034 218.817 76.0488 219.17 76.0761C219.198 76.0805 219.226 76.0906 219.25 76.1058C219.274 76.1211 219.295 76.1411 219.311 76.1648C219.327 76.1884 219.338 76.2151 219.344 76.2432C219.349 76.2713 219.348 76.3002 219.342 76.3281C219.329 76.385 219.296 76.4352 219.248 76.4691C219.201 76.5031 219.142 76.5185 219.084 76.5125C218.805 76.4949 218.525 76.5411 218.266 76.6476C218.008 76.7541 217.776 76.9181 217.59 77.1272C217.562 77.1583 217.526 77.1811 217.486 77.193C217.446 77.2049 217.403 77.2056 217.363 77.1948Z" fill="#263238"/>
<path d="M240.487 102.317L234.095 100.614C234.095 100.614 227.825 116.048 225.606 117.05C222.594 118.427 214.966 123.197 211.72 125.453C211.542 126.221 211.683 128.256 212.089 128.815C217.621 127.807 228.212 123.732 230.425 121.66C235.471 116.934 240.487 102.317 240.487 102.317Z" fill="#E58A7B"/>
<path d="M236.025 254.498C235.713 254.523 235.402 254.438 235.146 254.258C235.067 254.187 235.008 254.096 234.974 253.994C234.941 253.893 234.934 253.785 234.956 253.68C234.959 253.615 234.981 253.552 235.018 253.498C235.054 253.444 235.105 253.401 235.165 253.373C235.681 253.109 237.125 254.025 237.291 254.129C237.31 254.14 237.324 254.157 237.331 254.177C237.339 254.197 237.34 254.219 237.334 254.24C237.329 254.261 237.318 254.281 237.303 254.297C237.288 254.313 237.269 254.325 237.248 254.332C236.848 254.43 236.438 254.486 236.025 254.498ZM235.41 253.539C235.364 253.529 235.316 253.529 235.269 253.539C235.245 253.551 235.226 253.569 235.213 253.592C235.2 253.615 235.194 253.642 235.195 253.668C235.179 253.74 235.182 253.814 235.203 253.884C235.225 253.954 235.264 254.018 235.318 254.068C235.558 254.283 236.16 254.307 236.953 254.154C236.481 253.843 235.949 253.633 235.392 253.539H235.41Z" fill="#4CAF4F"/>
<path d="M237.217 254.332C237.201 254.337 237.184 254.337 237.168 254.332C236.707 254.074 235.84 253.059 235.97 252.543C235.989 252.461 236.035 252.388 236.101 252.336C236.167 252.284 236.248 252.255 236.332 252.254C236.415 252.243 236.499 252.25 236.578 252.275C236.658 252.299 236.731 252.34 236.793 252.396C237.303 252.832 237.334 254.172 237.334 254.24C237.337 254.26 237.333 254.28 237.323 254.298C237.313 254.316 237.298 254.33 237.279 254.338C237.258 254.342 237.237 254.34 237.217 254.332ZM236.394 252.457H236.351C236.209 252.457 236.191 252.537 236.185 252.568C236.111 252.869 236.658 253.637 237.113 254C237.111 253.481 236.95 252.975 236.652 252.549C236.58 252.487 236.488 252.454 236.394 252.457Z" fill="#4CAF4F"/>
<path d="M219.705 253.73C219.329 253.861 218.92 253.861 218.543 253.73C218.458 253.683 218.386 253.616 218.333 253.535C218.28 253.453 218.249 253.359 218.242 253.262C218.234 253.202 218.242 253.14 218.265 253.083C218.287 253.026 218.324 252.976 218.371 252.937C218.863 252.494 220.873 252.937 221.1 253.023C221.122 253.028 221.141 253.041 221.155 253.059C221.168 253.077 221.175 253.099 221.174 253.121C221.175 253.144 221.169 253.167 221.157 253.187C221.145 253.206 221.128 253.222 221.107 253.232C220.654 253.436 220.185 253.602 219.705 253.73ZM218.703 252.998C218.633 253.012 218.567 253.044 218.513 253.09C218.493 253.105 218.478 253.125 218.469 253.148C218.461 253.171 218.459 253.195 218.463 253.219C218.467 253.284 218.488 253.346 218.522 253.401C218.556 253.456 218.604 253.501 218.66 253.533C218.986 253.705 219.742 253.57 220.719 253.158C220.061 252.992 219.379 252.938 218.703 252.998Z" fill="#4CAF4F"/>
<path d="M221.088 253.232H221.039C220.424 253.121 219.195 252.414 219.158 251.885C219.158 251.763 219.214 251.59 219.509 251.492C219.608 251.457 219.714 251.442 219.82 251.448C219.925 251.454 220.029 251.482 220.123 251.529C220.787 251.855 221.137 253.035 221.156 253.09C221.16 253.109 221.16 253.128 221.154 253.147C221.149 253.165 221.139 253.181 221.125 253.195C221.116 253.21 221.103 253.222 221.088 253.232ZM219.631 251.676H219.57C219.379 251.744 219.379 251.824 219.379 251.849C219.379 252.168 220.271 252.752 220.892 252.949C220.749 252.455 220.446 252.023 220.031 251.72C219.908 251.657 219.765 251.641 219.631 251.676Z" fill="#4CAF4F"/>
<path d="M212.243 125.09L205.832 128.041L205.088 129.885L207.455 131.477C207.455 131.477 211.881 130.997 213.141 128.151L212.243 125.09Z" fill="#E58A7B"/>
<path d="M212.513 128.92C212.37 127.688 211.963 126.501 211.321 125.441L212.335 124.678C213.098 125.901 213.585 127.275 213.761 128.705L212.513 128.92Z" fill="#263238"/>
<path d="M213.608 125.963C213.743 126.176 213.81 126.426 213.798 126.678C213.787 126.931 213.698 127.173 213.544 127.373C213.389 127.574 213.177 127.721 212.936 127.796C212.695 127.872 212.436 127.871 212.196 127.794C211.955 127.717 211.744 127.568 211.591 127.366C211.439 127.165 211.351 126.922 211.342 126.67C211.332 126.417 211.4 126.168 211.538 125.956C211.675 125.743 211.874 125.579 212.108 125.484C212.37 125.35 212.675 125.325 212.956 125.415C213.237 125.505 213.471 125.702 213.608 125.963Z" fill="#263238"/>
<path d="M201.499 130.426L202.353 131.286L208.106 128.827L205.832 128.041L201.499 130.426Z" fill="#E58A7B"/>
<path opacity="0.2" d="M226.202 242.776C226.239 242.776 227.075 245.124 227.075 245.124L218.568 248.701L217.228 246.206L226.202 242.776Z" fill="black"/>
<path opacity="0.2" d="M243.592 245.757C243.629 245.757 243.874 248.124 243.874 248.124H234.556L233.892 245.407L243.592 245.757Z" fill="black"/>
<path d="M242.153 100.546C243.844 105.998 237.236 113.454 237.236 113.454L228.108 109.73C229.19 106.578 230.437 103.486 231.845 100.466C234.648 94.4241 240.444 95.045 242.153 100.546Z" fill="#4CAF4F"/>
<path opacity="0.2" d="M242.153 100.546C243.844 105.998 237.236 113.454 237.236 113.454L228.108 109.73C229.19 106.578 230.437 103.486 231.845 100.466C234.648 94.4241 240.444 95.045 242.153 100.546Z" fill="black"/>
<path d="M151.452 45.9201H147.524V46.5532H151.452V45.9201Z" fill="#4CAF4F"/>
<path d="M202.297 70.9782L201.821 81.5276L202.454 81.5561L202.929 71.0067L202.297 70.9782Z" fill="#4CAF4F"/>
<path d="M201.075 48.7599H128.543L121.794 199.798H194.326L201.075 48.7599Z" fill="#4CAF4F"/>
<path opacity="0.56" d="M198.911 50.8375H126.38L119.63 201.875H192.162L198.911 50.8375Z" fill="#FAFAFA"/>
<path opacity="0.07" d="M196.747 52.9089H124.216L117.46 203.947H189.992L196.747 52.9089Z" fill="#4CAF4F"/>
<path d="M188.492 118.784H126.582L126.066 130.34H187.976L188.492 118.784Z" fill="white"/>
<path d="M160.629 110.35H126.957L126.73 115.52H160.402L160.629 110.35Z" fill="#4CAF4F"/>
<path d="M187.097 149.972H125.187L124.67 161.528H186.58L187.097 149.972Z" fill="white"/>
<path opacity="0.47" d="M175.744 177.135H134.112L133.491 190.983H175.123L175.744 177.135Z" fill="#4CAF4F"/>
<path d="M172.959 193.135H131.327C131.309 193.139 131.29 193.139 131.272 193.135C131.266 193.117 131.266 193.097 131.272 193.079L131.887 179.225C131.887 179.215 131.889 179.206 131.892 179.197C131.896 179.189 131.902 179.181 131.909 179.175C131.916 179.168 131.924 179.163 131.933 179.16C131.942 179.157 131.951 179.156 131.961 179.157H173.593C173.6 179.153 173.609 179.151 173.617 179.151C173.626 179.151 173.634 179.153 173.642 179.157C173.646 179.165 173.648 179.173 173.648 179.182C173.648 179.19 173.646 179.199 173.642 179.206L173.039 193.092C173.032 193.106 173.02 193.118 173.006 193.126C172.992 193.133 172.976 193.137 172.959 193.135ZM131.401 192.987H172.886L173.5 179.28H132.016L131.401 192.987Z" fill="white"/>
<path d="M153.358 141.539H125.562L125.334 146.715H153.124L153.358 141.539Z" fill="#4CAF4F"/>
<path d="M174.951 81.4544C174.792 84.8176 173.596 88.049 171.527 90.7053C169.996 92.7117 168.025 94.3405 165.766 95.4668C163.507 96.593 161.02 97.1868 158.496 97.2024C156.456 97.218 154.435 96.8158 152.557 96.0206C150.678 95.2254 148.983 94.054 147.574 92.5787C146.166 91.1034 145.074 89.3553 144.367 87.4421C143.659 85.529 143.351 83.4912 143.461 81.4544C143.677 77.2279 145.5 73.2437 148.556 70.3164C151.613 67.3892 155.672 65.7401 159.904 65.7065C161.945 65.6874 163.968 66.0872 165.849 66.881C167.73 67.6748 169.428 68.8458 170.838 70.3217C172.248 71.7976 173.341 73.547 174.048 75.4618C174.756 77.3766 175.063 79.4162 174.951 81.4544Z" fill="white"/>
<path d="M176.432 69.0011C176.392 69.8954 176.074 70.7548 175.523 71.4598C175.115 71.9927 174.59 72.4253 173.989 72.7247C173.388 73.024 172.727 73.1822 172.056 73.1871C171.406 73.191 170.764 73.0357 170.188 72.7346C169.611 72.4335 169.117 71.9958 168.749 71.4598C168.261 70.7355 168.02 69.8734 168.061 69.0011C168.12 67.879 168.605 66.8218 169.417 66.0451C170.229 65.2684 171.307 64.8307 172.431 64.8213C172.973 64.8164 173.51 64.9225 174.01 65.1331C174.509 65.3437 174.961 65.6544 175.335 66.046C175.71 66.4376 176.001 66.9018 176.19 67.4101C176.378 67.9183 176.461 68.4598 176.432 69.0011Z" fill="#4CAF4F"/>
<path d="M133.251 124.562C133.222 125.057 133.006 125.523 132.646 125.865C132.287 126.207 131.811 126.4 131.315 126.406C131.076 126.408 130.838 126.362 130.617 126.27C130.396 126.177 130.196 126.04 130.031 125.867C129.865 125.694 129.736 125.489 129.652 125.265C129.569 125.04 129.532 124.801 129.545 124.562C129.572 124.065 129.787 123.598 130.147 123.255C130.507 122.912 130.984 122.72 131.481 122.718C131.72 122.716 131.958 122.763 132.178 122.855C132.399 122.948 132.598 123.085 132.764 123.258C132.929 123.431 133.058 123.635 133.142 123.86C133.226 124.084 133.263 124.323 133.251 124.562Z" fill="#263238"/>
<path d="M141.537 124.562C141.509 125.057 141.293 125.524 140.934 125.866C140.574 126.209 140.098 126.402 139.601 126.406C139.362 126.408 139.125 126.361 138.905 126.268C138.685 126.175 138.486 126.038 138.32 125.865C138.155 125.692 138.027 125.487 137.944 125.263C137.861 125.039 137.824 124.8 137.837 124.562C137.863 124.066 138.078 123.6 138.437 123.257C138.795 122.915 139.271 122.722 139.767 122.718C140.007 122.715 140.244 122.761 140.465 122.854C140.686 122.946 140.886 123.083 141.052 123.256C141.218 123.429 141.346 123.634 141.43 123.859C141.513 124.083 141.55 124.322 141.537 124.562Z" fill="#263238"/>
<path d="M149.829 124.562C149.801 125.057 149.585 125.524 149.226 125.866C148.866 126.209 148.39 126.402 147.893 126.406C147.654 126.408 147.416 126.361 147.196 126.268C146.975 126.175 146.776 126.038 146.61 125.865C146.445 125.693 146.316 125.488 146.232 125.264C146.148 125.04 146.111 124.801 146.123 124.562C146.151 124.066 146.367 123.599 146.726 123.257C147.086 122.914 147.562 122.721 148.059 122.718C148.299 122.715 148.536 122.761 148.757 122.854C148.978 122.946 149.178 123.083 149.344 123.256C149.509 123.429 149.638 123.634 149.722 123.859C149.805 124.083 149.842 124.322 149.829 124.562Z" fill="#263238"/>
<path d="M131.856 155.75C131.827 156.246 131.61 156.711 131.251 157.053C130.892 157.396 130.416 157.589 129.92 157.594C129.681 157.596 129.443 157.549 129.223 157.456C129.002 157.363 128.803 157.226 128.637 157.054C128.472 156.881 128.343 156.676 128.259 156.452C128.175 156.228 128.138 155.989 128.15 155.75C128.178 155.254 128.393 154.788 128.753 154.445C129.113 154.103 129.589 153.91 130.086 153.906C130.325 153.904 130.562 153.951 130.783 154.044C131.003 154.137 131.203 154.274 131.368 154.447C131.534 154.619 131.663 154.824 131.747 155.048C131.831 155.272 131.868 155.511 131.856 155.75Z" fill="#263238"/>
<path d="M140.142 155.75C140.114 156.245 139.899 156.711 139.54 157.053C139.182 157.395 138.707 157.589 138.212 157.594C137.972 157.597 137.734 157.551 137.514 157.458C137.293 157.366 137.093 157.229 136.927 157.056C136.761 156.883 136.632 156.678 136.549 156.453C136.465 156.229 136.429 155.989 136.441 155.75C136.469 155.254 136.685 154.788 137.045 154.445C137.405 154.103 137.881 153.91 138.378 153.906C138.617 153.904 138.854 153.951 139.074 154.044C139.294 154.137 139.493 154.274 139.658 154.447C139.823 154.62 139.952 154.824 140.035 155.049C140.118 155.273 140.154 155.512 140.142 155.75Z" fill="#263238"/>
<path d="M148.452 155.75C148.424 156.246 148.209 156.713 147.849 157.055C147.489 157.398 147.013 157.59 146.516 157.594C146.277 157.595 146.04 157.548 145.82 157.455C145.6 157.361 145.401 157.224 145.236 157.052C145.07 156.879 144.941 156.675 144.857 156.451C144.773 156.228 144.735 155.989 144.746 155.75C144.775 155.255 144.992 154.789 145.351 154.447C145.71 154.105 146.186 153.912 146.682 153.906C146.922 153.903 147.159 153.95 147.38 154.042C147.601 154.135 147.801 154.272 147.967 154.445C148.133 154.618 148.261 154.823 148.345 155.047C148.428 155.272 148.465 155.511 148.452 155.75Z" fill="#263238"/>
<path d="M156.726 155.75C156.696 156.246 156.48 156.711 156.121 157.053C155.762 157.396 155.286 157.589 154.79 157.594C154.551 157.595 154.314 157.548 154.094 157.455C153.874 157.361 153.675 157.224 153.509 157.052C153.344 156.879 153.215 156.675 153.131 156.451C153.046 156.228 153.009 155.989 153.019 155.75C153.049 155.255 153.265 154.789 153.624 154.447C153.984 154.105 154.459 153.912 154.956 153.906C155.195 153.904 155.432 153.951 155.653 154.044C155.873 154.137 156.072 154.274 156.238 154.447C156.404 154.619 156.533 154.824 156.617 155.048C156.7 155.272 156.738 155.511 156.726 155.75Z" fill="#263238"/>
<path d="M165.049 155.75C165.019 156.246 164.803 156.711 164.444 157.053C164.084 157.396 163.609 157.589 163.113 157.594C162.873 157.597 162.635 157.551 162.414 157.458C162.193 157.366 161.994 157.229 161.828 157.056C161.662 156.883 161.533 156.678 161.45 156.453C161.366 156.229 161.33 155.989 161.342 155.75C161.37 155.254 161.586 154.788 161.946 154.445C162.305 154.103 162.782 153.91 163.279 153.906C163.518 153.904 163.755 153.951 163.976 154.044C164.196 154.137 164.395 154.274 164.561 154.447C164.727 154.619 164.856 154.824 164.939 155.048C165.023 155.272 165.06 155.511 165.049 155.75Z" fill="#263238"/>
<path d="M163.791 80.6343C166.363 78.1184 166.5 74.0857 164.095 71.627C161.691 69.1683 157.656 69.2147 155.084 71.7306C152.511 74.2465 152.374 78.2792 154.779 80.7379C157.183 83.1966 161.218 83.1502 163.791 80.6343Z" fill="#4CAF4F"/>
<path d="M171.527 90.7053C169.996 92.7117 168.025 94.3405 165.766 95.4668C163.507 96.593 161.02 97.1868 158.496 97.2024C156.049 97.2232 153.634 96.6414 151.464 95.5083C149.294 94.3753 147.437 92.7258 146.055 90.7053C149.042 87.7303 153.769 85.7879 159.006 85.7879C164.243 85.7879 168.804 87.7303 171.527 90.7053Z" fill="#4CAF4F"/>
<path opacity="0.1" d="M163.791 80.6343C166.363 78.1184 166.5 74.0857 164.095 71.627C161.691 69.1683 157.656 69.2147 155.084 71.7306C152.511 74.2465 152.374 78.2792 154.779 80.7379C157.183 83.1966 161.218 83.1502 163.791 80.6343Z" fill="white"/>
<path opacity="0.1" d="M171.527 90.7053C169.996 92.7117 168.025 94.3405 165.766 95.4668C163.507 96.593 161.02 97.1868 158.496 97.2024C156.049 97.2232 153.634 96.6414 151.464 95.5083C149.294 94.3753 147.437 92.7258 146.055 90.7053C149.042 87.7303 153.769 85.7879 159.006 85.7879C164.243 85.7879 168.804 87.7303 171.527 90.7053Z" fill="white"/>
<path d="M81.0899 133.124C80.506 134.403 79.8913 135.81 79.3565 137.175C78.8218 138.539 78.2747 139.947 77.8014 141.348C76.835 144.11 76.099 146.948 75.6009 149.831L75.4656 150.734C75.4527 150.889 75.4673 151.046 75.5087 151.195C75.6537 151.705 75.8822 152.187 76.1848 152.622C76.9742 153.747 77.8899 154.778 78.914 155.695C79.9937 156.699 81.1263 157.645 82.307 158.529C83.4872 159.438 84.7288 160.323 85.952 161.159L84.8026 163.317C81.8818 162.044 79.1094 160.455 76.5352 158.578C75.1618 157.576 73.9224 156.403 72.8471 155.086C72.2098 154.303 71.7127 153.415 71.3781 152.462C71.1835 151.866 71.0839 151.244 71.083 150.618C71.083 150.47 71.083 150.255 71.083 150.151V149.849L71.1445 149.235C71.4969 146.032 72.1702 142.873 73.1545 139.806C73.6339 138.293 74.1441 136.787 74.728 135.318C75.312 133.849 75.9144 132.411 76.6581 130.917L81.0899 133.124Z" fill="#E58A7B"/>
<path d="M85.0852 160.778L89.4309 158.578L88.3061 163.348C88.3061 163.348 85.3249 164.184 83.9419 162.733L85.0852 160.778Z" fill="#E58A7B"/>
<path d="M93.408 159.358L92.2524 163.305L88.3062 163.348L89.431 158.578L93.408 159.358Z" fill="#E58A7B"/>
<path d="M99.5426 110.111C99.775 110.962 100.099 111.787 100.508 112.569C100.388 112.705 100.234 112.806 100.062 112.861C99.8901 112.916 99.7063 112.924 99.5303 112.883L99.5426 110.111Z" fill="#DF5753"/>
<path d="M99.4136 110.147C99.6682 110.147 99.8746 109.831 99.8746 109.441C99.8746 109.05 99.6682 108.734 99.4136 108.734C99.159 108.734 98.9526 109.05 98.9526 109.441C98.9526 109.831 99.159 110.147 99.4136 110.147Z" fill="#263238"/>
<path d="M99.2783 108.758L100.213 108.494C100.213 108.494 99.7578 109.219 99.2783 108.758Z" fill="#263238"/>
<path d="M87.538 114.622C88.0973 117.481 88.6567 122.724 86.6528 124.635C86.6528 124.635 87.4396 127.537 92.7566 127.537C98.6021 127.537 95.5472 124.635 95.5472 124.635C92.357 123.873 92.4369 121.507 92.9963 119.282L87.538 114.622Z" fill="#E58A7B"/>
<path d="M85.9828 108.107C86.2778 112.883 86.3024 114.911 88.7119 117.364C92.3446 121.052 98.1472 119.65 99.2843 114.905C100.311 110.602 99.6593 103.521 94.9816 101.622C93.9548 101.199 92.8371 101.045 91.7342 101.174C90.6313 101.304 89.5796 101.712 88.6787 102.362C87.7778 103.011 87.0573 103.879 86.5856 104.885C86.1138 105.89 85.9064 106.999 85.9828 108.107Z" fill="#E58A7B"/>
<path d="M86.456 102.735C84.0587 103.607 80.8624 102.956 82.1163 110.35C83.444 118.181 81.4033 120.757 81.4033 120.757C81.4033 120.757 90.4944 122.693 99.776 120.64C99.776 120.64 96.9423 115.686 97.7352 112.035C98.7495 107.424 97.9504 105.722 97.9504 105.722C97.9504 105.722 89.8244 101.505 86.456 102.735Z" fill="#263238"/>
<path d="M96.5981 110.596C96.6006 111.504 96.8607 112.393 97.348 113.159C97.9996 114.155 98.7679 113.774 98.9585 112.717C99.1306 111.789 99.0015 110.147 98.1717 109.508C97.3419 108.869 96.6104 109.496 96.5981 110.596Z" fill="#E58A7B"/>
<path d="M84.3724 103.54C83.684 101.604 86.9664 98.6223 93.9122 99.8517C100.858 101.081 101.159 106.865 101.159 106.865L99.7577 105.193L99.8192 106.951L92.6828 108.322L84.3724 103.54Z" fill="#263238"/>
<path d="M84.9626 124.961C84.9216 124.681 84.9918 124.395 85.1583 124.165C85.3248 123.936 85.5744 123.78 85.8539 123.732C88.0175 123.375 92.9349 122.65 95.4059 122.994C97.25 123.252 97.7294 124.322 97.8093 125.201C97.8218 125.355 97.8012 125.51 97.7489 125.655C97.6967 125.8 97.6139 125.933 97.5061 126.043C97.3984 126.154 97.2683 126.24 97.1244 126.296C96.9806 126.352 96.8263 126.377 96.6722 126.369L85.9891 125.889C85.7373 125.877 85.4975 125.777 85.3105 125.608C85.1234 125.439 85.0005 125.21 84.9626 124.961Z" fill="#4CAF4F"/>
<path opacity="0.6" d="M84.9626 124.961C84.9216 124.681 84.9918 124.395 85.1583 124.165C85.3248 123.936 85.5744 123.78 85.8539 123.732C88.0175 123.375 92.9349 122.65 95.4059 122.994C97.25 123.252 97.7294 124.322 97.8093 125.201C97.8218 125.355 97.8012 125.51 97.7489 125.655C97.6967 125.8 97.6139 125.933 97.5061 126.043C97.3984 126.154 97.2683 126.24 97.1244 126.296C96.9806 126.352 96.8263 126.377 96.6722 126.369L85.9891 125.889C85.7373 125.877 85.4975 125.777 85.3105 125.608C85.1234 125.439 85.0005 125.21 84.9626 124.961Z" fill="black"/>
<path d="M91.1396 232.345L95.1043 235.099L101.737 226.106L97.772 223.358L91.1396 232.345Z" fill="#E58A7B"/>
<path d="M81.895 232.167L86.081 234.552L91.9511 225.043L87.7652 222.658L81.895 232.167Z" fill="#E58A7B"/>
<path d="M101.731 226.106L98.3133 230.741L94.3486 227.993L97.7662 223.358L101.731 226.106Z" fill="#CF6F64"/>
<path d="M87.7591 222.658L91.9512 225.049L88.927 229.948L84.7349 227.557L87.7591 222.658Z" fill="#CF6F64"/>
<path d="M94.4838 154.982C94.4838 154.982 109.961 174.486 107.054 193.141C104.712 208.207 91.1277 228.608 91.1277 228.608L84.7412 225.436C89.2427 216.416 93.0843 207.081 96.2356 197.505C97.2074 194.532 97.491 191.377 97.0651 188.279C96.6392 185.18 95.5148 182.219 93.7769 179.618C85.9336 168.167 73.3697 174.983 81.8215 154.982H94.4838Z" fill="#4CAF4F"/>
<path opacity="0.6" d="M94.4838 154.982C94.4838 154.982 109.961 174.486 107.054 193.141C104.712 208.207 91.1277 228.608 91.1277 228.608L84.7412 225.436C89.2427 216.416 93.0843 207.081 96.2356 197.505C97.2074 194.532 97.491 191.377 97.0651 188.279C96.6392 185.18 95.5148 182.219 93.7769 179.618C85.9336 168.167 73.3697 174.983 81.8215 154.982H94.4838Z" fill="black"/>
<path opacity="0.4" d="M102.075 167.509L99.8252 165.272C99.8252 165.45 104.183 192.354 105.406 199.915C106.128 197.706 106.681 195.446 107.06 193.153C108.498 184.001 105.493 174.651 102.075 167.509Z" fill="black"/>
<path d="M101.392 154.982C101.392 154.982 120.029 179.495 120.558 194.192C120.994 206.486 100.274 230.304 100.274 230.304L94.2499 226.407C94.2499 226.407 106.377 209.491 109.432 195.673C108.252 181.978 83.2964 154.982 83.2964 154.982H101.392Z" fill="#4CAF4F"/>
<path opacity="0.6" d="M101.392 154.982C101.392 154.982 120.029 179.495 120.558 194.192C120.994 206.486 100.274 230.304 100.274 230.304L94.2499 226.407C94.2499 226.407 106.377 209.491 109.432 195.673C108.252 181.978 83.2964 154.982 83.2964 154.982H101.392Z" fill="black"/>
<path d="M78.3363 125.729C76.3447 126.203 74.4331 133.444 74.4331 133.444L82.221 138.644C82.221 138.644 84.815 132.915 83.9053 130.407C82.9648 127.795 80.838 125.133 78.3363 125.729Z" fill="#4CAF4F"/>
<path opacity="0.2" d="M79.8607 130.395L79.3198 136.708L82.2149 138.65C83.0143 136.85 83.6062 134.965 83.9791 133.032L79.8607 130.395Z" fill="black"/>
<path d="M103.698 125.871C103.698 125.871 105.997 126.676 101.393 154.976H81.8093C82.1413 146.985 82.1474 142.068 78.3364 125.729C81.0785 125.164 83.858 124.799 86.653 124.635C89.614 124.423 92.5863 124.423 95.5473 124.635C99.3706 124.986 103.698 125.871 103.698 125.871Z" fill="#4CAF4F"/>
<path d="M105.689 130.395C106.132 131.624 106.599 132.946 107.09 134.218C107.582 135.491 108.049 136.8 108.547 138.091L110.053 141.951L110.434 142.916L110.631 143.395L110.723 143.635C110.723 143.678 110.723 143.678 110.723 143.672C110.611 143.514 110.464 143.383 110.293 143.291C110.05 143.148 109.776 143.065 109.494 143.051C109.26 143.044 109.027 143.088 108.812 143.18C108.529 143.309 108.529 143.365 108.535 143.358C108.586 143.317 108.632 143.27 108.67 143.217C109.01 142.77 109.305 142.29 109.549 141.785C109.838 141.219 110.115 140.617 110.391 140.008C110.932 138.779 111.43 137.507 111.928 136.222C112.426 134.937 112.899 133.64 113.36 132.331L114.762 128.409L117.128 129.024C116.661 131.827 116.059 134.556 115.333 137.335C114.983 138.718 114.571 140.088 114.104 141.471C113.87 142.166 113.612 142.854 113.317 143.561C113.01 144.328 112.631 145.065 112.186 145.762C112.023 145.996 111.842 146.218 111.645 146.426C111.331 146.765 110.95 147.035 110.527 147.219C110.15 147.38 109.743 147.456 109.334 147.44C108.876 147.423 108.43 147.29 108.037 147.053C107.574 146.764 107.19 146.364 106.918 145.891C106.826 145.731 106.746 145.571 106.691 145.454L106.574 145.221L106.341 144.741L105.873 143.789C105.259 142.51 104.644 141.219 104.109 139.922C103.575 138.625 103.009 137.31 102.48 135.988C101.952 134.667 101.478 133.345 101.03 131.919L105.689 130.395Z" fill="#E58A7B"/>
<path d="M103.698 125.871C106.052 126.43 108.701 133.388 108.701 133.388L101.7 139.345C101.7 139.345 97.1698 131.759 98.0856 129.258C99.0384 126.652 100.624 125.139 103.698 125.871Z" fill="#4CAF4F"/>
<path d="M115.874 126.209L118.333 124.156L120.042 126.817L118.782 129.036C118.782 129.036 116.778 130.88 115.008 129.94C114.727 129.308 114.659 128.603 114.816 127.929C114.972 127.256 115.344 126.652 115.874 126.209Z" fill="#E58A7B"/>
<path d="M122.771 124.162L122.586 124.832L118.696 125.484L118.314 124.156L122.771 124.162Z" fill="#E58A7B"/>
<path d="M100.753 230.618L93.7339 226.081L94.994 223.893L102.88 228.743L100.753 230.618Z" fill="#4CAF4F"/>
<path d="M88.8287 234.232C88.2128 234.157 87.621 233.947 87.0953 233.617C87.0736 233.61 87.0548 233.596 87.0415 233.577C87.0282 233.558 87.021 233.536 87.021 233.513C87.021 233.49 87.0282 233.467 87.0415 233.449C87.0548 233.43 87.0736 233.416 87.0953 233.408C87.2858 233.347 88.9393 232.837 89.4188 233.23C89.4726 233.275 89.5136 233.333 89.5374 233.399C89.5611 233.465 89.5669 233.536 89.554 233.605C89.5454 233.716 89.5088 233.822 89.4475 233.915C89.3861 234.007 89.3022 234.083 89.2036 234.134C89.0885 234.196 88.9598 234.23 88.8287 234.232ZM87.4456 233.556C88.214 233.949 88.8287 234.091 89.1237 233.943C89.1879 233.907 89.242 233.856 89.2807 233.794C89.3195 233.731 89.3416 233.66 89.345 233.587C89.345 233.488 89.345 233.445 89.2897 233.421C89.0315 233.212 88.1095 233.371 87.4333 233.556H87.4456Z" fill="#263238"/>
<path d="M87.1386 233.66C87.1061 233.66 87.0752 233.647 87.0525 233.623C87.0434 233.606 87.0386 233.587 87.0386 233.568C87.0386 233.549 87.0434 233.53 87.0525 233.513C87.0525 233.457 87.452 232.124 88.079 231.822C88.1591 231.786 88.2461 231.767 88.3341 231.767C88.4221 231.767 88.5091 231.786 88.5892 231.822C88.6755 231.85 88.7502 231.905 88.8015 231.98C88.8527 232.054 88.8775 232.144 88.872 232.234C88.8289 232.787 87.7041 233.55 87.1877 233.679L87.1386 233.66ZM88.331 231.982C88.2712 231.984 88.2126 231.999 88.1589 232.025C87.7778 232.21 87.4643 232.929 87.3107 233.365C87.8516 233.138 88.5953 232.535 88.6199 232.197C88.6199 232.142 88.6199 232.074 88.4786 232.013C88.4326 231.988 88.3827 231.972 88.331 231.964V231.982Z" fill="#263238"/>
<path d="M97.6001 236.887C96.9055 236.887 95.9405 235.996 95.4119 235.449C95.3984 235.43 95.3911 235.408 95.3911 235.384C95.3911 235.361 95.3984 235.339 95.4119 235.32C95.424 235.3 95.4413 235.284 95.4618 235.273C95.4824 235.262 95.5055 235.257 95.5287 235.258C95.7745 235.258 97.9075 235.578 98.2087 236.18C98.2406 236.234 98.2574 236.296 98.2574 236.359C98.2574 236.421 98.2406 236.483 98.2087 236.537C98.1635 236.631 98.0952 236.712 98.0103 236.772C97.9254 236.832 97.8265 236.87 97.7231 236.881L97.6001 236.887ZM95.8176 235.535C96.5921 236.285 97.2743 236.703 97.6616 236.654C97.7294 236.645 97.794 236.62 97.8497 236.58C97.9055 236.54 97.9506 236.488 97.9812 236.426C97.995 236.405 98.0023 236.381 98.0023 236.356C98.0023 236.331 97.995 236.306 97.9812 236.285C97.8214 235.953 96.6843 235.67 95.8176 235.535Z" fill="#263238"/>
<path d="M95.8854 235.504C95.7474 235.508 95.6094 235.498 95.4736 235.474C95.4546 235.471 95.4367 235.463 95.4216 235.451C95.4065 235.439 95.3948 235.424 95.3875 235.406C95.3783 235.388 95.3735 235.368 95.3735 235.348C95.3735 235.327 95.3783 235.307 95.3875 235.289C95.4244 235.246 96.2542 234.244 97.041 234.177C97.2637 234.159 97.4844 234.23 97.6557 234.373C97.8954 234.582 97.8831 234.767 97.8216 234.884C97.6679 235.301 96.6046 235.504 95.8854 235.504ZM95.7256 235.277C96.414 235.314 97.5143 235.086 97.6557 234.785C97.6557 234.785 97.7048 234.687 97.545 234.552C97.4814 234.496 97.4071 234.455 97.3268 234.429C97.2464 234.404 97.1617 234.395 97.0779 234.404C96.5479 234.552 96.0759 234.859 95.7256 235.283V235.277Z" fill="#263238"/>
<path d="M87.3042 232.996L82.0917 231.521C82.0019 231.494 81.9052 231.501 81.8201 231.541C81.735 231.58 81.6676 231.65 81.6307 231.736L79.8728 235.689C79.8315 235.79 79.8121 235.899 79.8159 236.008C79.8197 236.117 79.8466 236.225 79.8947 236.323C79.9429 236.421 80.0114 236.508 80.0955 236.577C80.1796 236.647 80.2776 236.698 80.383 236.728C82.227 237.207 83.1121 237.342 85.4048 238C86.8186 238.393 88.8347 239.125 90.7833 239.678C92.7318 240.231 93.3833 238.332 92.6273 237.926C89.2097 236.119 88.9392 234.853 88.0049 233.501C87.8376 233.256 87.5896 233.077 87.3042 232.996Z" fill="#4CAF4F"/>
<path d="M95.5534 234.73L91.1032 231.656C91.0277 231.602 90.9347 231.576 90.8418 231.585C90.7489 231.594 90.6626 231.637 90.5991 231.706L87.6487 234.877C87.5768 234.959 87.5232 235.056 87.4914 235.16C87.4596 235.264 87.4504 235.374 87.4643 235.482C87.4783 235.59 87.5151 235.694 87.5723 235.787C87.6295 235.88 87.7059 235.96 87.7962 236.021C89.3636 237.072 90.175 237.496 92.1358 238.854C93.3652 239.69 95.744 241.547 97.4036 242.702C99.0632 243.858 100.299 242.272 99.7086 241.645C97.0655 238.824 96.4877 237.053 96.0513 235.449C95.9755 235.158 95.7992 234.903 95.5534 234.73Z" fill="#4CAF4F"/>
<path d="M91.9453 229.013L83.9238 225.024L84.7536 222.848L93.3222 227.053L91.9453 229.013Z" fill="#4CAF4F"/>
<path d="M81.5141 153.826L80.8379 155.597C80.7703 155.732 80.9301 155.873 81.1575 155.873H101.491C101.669 155.873 101.817 155.787 101.829 155.676L102.001 153.919C102.001 153.802 101.86 153.697 101.669 153.697H81.8337C81.774 153.692 81.7138 153.7 81.6582 153.723C81.6025 153.745 81.5531 153.781 81.5141 153.826Z" fill="#4CAF4F"/>
<path opacity="0.4" d="M81.5141 153.826L80.8379 155.597C80.7703 155.732 80.9301 155.873 81.1575 155.873H101.491C101.669 155.873 101.817 155.787 101.829 155.676L102.001 153.919C102.001 153.802 101.86 153.697 101.669 153.697H81.8337C81.774 153.692 81.7138 153.7 81.6582 153.723C81.6025 153.745 81.5531 153.781 81.5141 153.826Z" fill="white"/>
<path d="M84.7163 156.045H84.1815C84.077 156.045 83.9971 155.99 84.0033 155.922L84.2553 153.642C84.2553 153.58 84.3536 153.525 84.4581 153.525H84.9929C85.0974 153.525 85.1773 153.58 85.1712 153.642L84.9191 155.922C84.913 155.99 84.8208 156.045 84.7163 156.045Z" fill="#4CAF4F"/>
<path d="M97.256 156.045H96.7274C96.6229 156.045 96.543 155.99 96.5492 155.922L96.795 153.642C96.795 153.58 96.8995 153.525 97.004 153.525H97.5326C97.6371 153.525 97.7232 153.58 97.7109 153.642L97.465 155.922C97.4343 155.99 97.3667 156.045 97.256 156.045Z" fill="#4CAF4F"/>
<g style="mix-blend-mode:multiply">
<path d="M84.2494 260.141C93.3439 260.141 100.717 259.607 100.717 258.948C100.717 258.289 93.3439 257.756 84.2494 257.756C75.1548 257.756 67.7822 258.289 67.7822 258.948C67.7822 259.607 75.1548 260.141 84.2494 260.141Z" fill="#F5F5F5"/>
</g>
<path d="M94.2806 257.264C91.3671 256.416 88.1339 255.328 86.1792 254.19C86.1239 254.154 86.0624 254.135 86.0071 254.104V240.913H91.9018C92.3493 240.887 92.7698 240.691 93.0772 240.364C93.3847 240.038 93.5559 239.607 93.5559 239.159C93.5559 238.71 93.3847 238.279 93.0772 237.953C92.7698 237.627 92.3493 237.43 91.9018 237.404H86.0378V177.276H82.4973V237.404H76.6395C76.4003 237.39 76.1607 237.424 75.9355 237.506C75.7103 237.588 75.5041 237.715 75.3298 237.879C75.1554 238.044 75.0165 238.242 74.9215 238.462C74.8266 238.682 74.7776 238.919 74.7776 239.159C74.7776 239.398 74.8266 239.635 74.9215 239.855C75.0165 240.075 75.1554 240.274 75.3298 240.438C75.5041 240.602 75.7103 240.729 75.9355 240.811C76.1607 240.893 76.4003 240.928 76.6395 240.913H82.4973V254.086C82.442 254.086 82.3867 254.135 82.3314 254.172C80.3459 255.328 77.1373 256.416 74.2238 257.245C74.027 257.305 73.858 257.433 73.7474 257.606C73.6368 257.78 73.5919 257.987 73.6209 258.19C73.6499 258.394 73.7508 258.58 73.9053 258.716C74.0599 258.852 74.2579 258.927 74.4635 258.93H94.0409C94.2374 258.916 94.4233 258.836 94.5677 258.702C94.7121 258.568 94.8061 258.389 94.8342 258.194C94.8622 257.999 94.8226 257.8 94.7218 257.631C94.6211 257.462 94.4654 257.332 94.2806 257.264Z" fill="#E0E0E0"/>
<path d="M95.1844 171.154H73.3266C71.5681 171.154 70.1426 172.58 70.1426 174.338V180.835C70.1426 182.594 71.5681 184.019 73.3266 184.019H95.1844C96.9429 184.019 98.3685 182.594 98.3685 180.835V174.338C98.3685 172.58 96.9429 171.154 95.1844 171.154Z" fill="#4CAF4F"/>
<path d="M73.1235 184.025V185.144C73.1235 186.066 74.1255 186.816 75.3548 186.816H93.1804C94.4097 186.816 95.4117 186.066 95.4117 185.144V184.025H73.1235Z" fill="#4CAF4F"/>
<path opacity="0.3" d="M73.1235 184.025V185.144C73.1235 186.066 74.1255 186.816 75.3548 186.816H93.1804C94.4097 186.816 95.4117 186.066 95.4117 185.144V184.025H73.1235Z" fill="white"/>
</svg>
